<svg width="2102" height="2212" viewBox="0 0 2102 2212" fill="none" xmlns="http://www.w3.org/2000/svg">
<path d="M1050.31 513L1050.91 1184.43V1477.07L1050.34 2148.14" stroke="white" stroke-opacity="0.06" stroke-width="2.42328" stroke-linecap="round" stroke-linejoin="round"/>
<path d="M642.079 2148.14L977.759 1477.07V1184.43L641.016 513" stroke="white" stroke-opacity="0.06" stroke-width="2.42328" stroke-linecap="round" stroke-linejoin="round"/>
<path d="M1459.6 513L1124.07 1184.43V1477.07L1458.6 2148.14" stroke="white" stroke-opacity="0.06" stroke-width="2.42328" stroke-linecap="round" stroke-linejoin="round"/>
<path d="M233.348 1739.77L758.293 1477.07V1184.43L233.5 922.484" stroke="white" stroke-opacity="0.06" stroke-width="2.42328" stroke-linecap="round" stroke-linejoin="round"/>
<path d="M233.348 1479.4L246.21 1477.07V1184.43L233.348 1182.1" stroke="white" stroke-opacity="0.06" stroke-width="2.42328" stroke-linecap="round" stroke-linejoin="round"/>
<path d="M233.348 1494.29L319.364 1477.07V1184.43L233.348 1167.25" stroke="white" stroke-opacity="0.06" stroke-width="2.42328" stroke-linecap="round" stroke-linejoin="round"/>
<path d="M233.348 1512.48L392.517 1477.07V1184.43L233.348 1149.11" stroke="white" stroke-opacity="0.06" stroke-width="2.42328" stroke-linecap="round" stroke-linejoin="round"/>
<path d="M233.348 1535.22L465.675 1477.07V1184.43L233.348 1126.44" stroke="white" stroke-opacity="0.06" stroke-width="2.42328" stroke-linecap="round" stroke-linejoin="round"/>
<path d="M233.348 1564.44L538.828 1477.07V1184.43L233.348 1097.28" stroke="white" stroke-opacity="0.06" stroke-width="2.42328" stroke-linecap="round" stroke-linejoin="round"/>
<path d="M233.348 1603.4L611.981 1477.07V1184.43L233.348 1058.42" stroke="white" stroke-opacity="0.06" stroke-width="2.42328" stroke-linecap="round" stroke-linejoin="round"/>
<path d="M233.348 1657.96L685.142 1477.07V1184.43L233.348 1004.01" stroke="white" stroke-opacity="0.06" stroke-width="2.42328" stroke-linecap="round" stroke-linejoin="round"/>
<path d="M233.348 1876.09L831.446 1477.07V1184.43L233.348 786.433" stroke="white" stroke-opacity="0.06" stroke-width="2.42328" stroke-linecap="round" stroke-linejoin="round"/>
<path d="M233.824 2148.14L904.607 1477.07V1184.43L233.348 514.619" stroke="white" stroke-opacity="0.06" stroke-width="2.42328" stroke-linecap="round" stroke-linejoin="round"/>
<path d="M620.614 1759.12C621.102 1758.63 621.893 1758.63 622.382 1759.11C622.871 1759.6 622.873 1760.39 622.386 1760.88L620.614 1759.12ZM374.386 2009.88L373.504 2010.77L371.732 2009L372.614 2008.12L374.386 2009.88ZM622.386 1760.88L374.386 2009.88L372.614 2008.12L620.614 1759.12L622.386 1760.88Z" fill="url(#paint0_linear_127_227)"/>
<path d="M879.381 1671.44C879.689 1670.82 880.44 1670.57 881.058 1670.88C881.675 1671.19 881.927 1671.94 881.619 1672.56L879.381 1671.44ZM720.619 1995.56L720.061 1996.68L717.824 1995.56L718.381 1994.44L720.619 1995.56ZM881.619 1672.56L720.619 1995.56L718.381 1994.44L879.381 1671.44L881.619 1672.56Z" fill="url(#paint1_linear_127_227)" fill-opacity="0.6"/>
<path d="M621.306 1615.46C621.88 1615.08 622.656 1615.23 623.039 1615.81C623.423 1616.38 623.268 1617.16 622.694 1617.54L621.306 1615.46ZM378.694 1780.54L377.655 1781.23L376.266 1779.15L377.306 1778.46L378.694 1780.54ZM622.694 1617.54L378.694 1780.54L377.306 1778.46L621.306 1615.46L622.694 1617.54Z" fill="url(#paint2_linear_127_227)" fill-opacity="0.57"/>
<path d="M1602.69 1697.46C1602.12 1697.08 1601.34 1697.23 1600.96 1697.81C1600.58 1698.38 1600.73 1699.16 1601.31 1699.54L1602.69 1697.46ZM1830.81 1852.54L1831.85 1853.23L1833.23 1851.15L1832.19 1850.46L1830.81 1852.54ZM1601.31 1699.54L1830.81 1852.54L1832.19 1850.46L1602.69 1697.46L1601.31 1699.54Z" fill="url(#paint3_linear_127_227)" fill-opacity="0.57"/>
<path d="M1868.48 1479.4L1855.62 1477.07V1184.43L1868.48 1182.1" stroke="white" stroke-opacity="0.06" stroke-width="2.42328" stroke-linecap="round" stroke-linejoin="round"/>
<path d="M1868.48 1494.29L1782.47 1477.07V1184.44L1868.48 1167.25" stroke="white" stroke-opacity="0.06" stroke-width="2.42328" stroke-linecap="round" stroke-linejoin="round"/>
<path d="M1868.48 1512.49L1709.32 1477.07V1184.43L1868.48 1149.1" stroke="white" stroke-opacity="0.06" stroke-width="2.42328" stroke-linecap="round" stroke-linejoin="round"/>
<path d="M1868.48 1535.24L1636.15 1477.07V1184.44L1868.48 1126.41" stroke="white" stroke-opacity="0.06" stroke-width="2.42328" stroke-linecap="round" stroke-linejoin="round"/>
<path d="M1868.48 1564.48L1563 1477.07V1184.43L1868.48 1097.24" stroke="white" stroke-opacity="0.06" stroke-width="2.42328" stroke-linecap="round" stroke-linejoin="round"/>
<path d="M1868.48 1058.35L1489.86 1184.43L1489.85 1477.07L1868.48 1603.47" stroke="white" stroke-opacity="0.06" stroke-width="2.42328" stroke-linecap="round" stroke-linejoin="round"/>
<path d="M1868.48 1003.89L1416.7 1184.44L1416.69 1477.07L1868.62 1658.13" stroke="white" stroke-opacity="0.06" stroke-width="2.42328" stroke-linecap="round" stroke-linejoin="round"/>
<path d="M1868.61 922.118L1343.54 1184.43L1343.54 1477.06L1868.48 1739.99" stroke="white" stroke-opacity="0.06" stroke-width="2.42328" stroke-linecap="round" stroke-linejoin="round"/>
<path d="M1868.61 785.889L1270.38 1184.43V1477.07L1868.48 1876.54" stroke="white" stroke-opacity="0.06" stroke-width="2.42328" stroke-linecap="round" stroke-linejoin="round"/>
<path d="M1868.48 513.42L1197.22 1184.43V1477.07L1866.86 2148.14" stroke="white" stroke-opacity="0.06" stroke-width="2.42328" stroke-linecap="round" stroke-linejoin="round"/>
<path d="M1380 1660L1685 1965" stroke="url(#paint4_linear_127_227)" stroke-width="2.5" stroke-linecap="round"/>
<path d="M1868.48 789.121H233.348" stroke="white" stroke-opacity="0.06" stroke-width="2.42328" stroke-linecap="round" stroke-linejoin="round"/>
<path d="M1868.48 1053.59H233.348" stroke="white" stroke-opacity="0.06" stroke-width="2.42328" stroke-linecap="round" stroke-linejoin="round"/>
<path d="M1868.48 964.087H233.348" stroke="white" stroke-opacity="0.06" stroke-width="2.42328" stroke-linecap="round" stroke-linejoin="round"/>
<path d="M1868.48 863.455H233.348" stroke="white" stroke-opacity="0.06" stroke-width="2.42328" stroke-linecap="round" stroke-linejoin="round"/>
<path d="M1868.48 1184.45H233.348" stroke="white" stroke-opacity="0.06" stroke-width="2.42328" stroke-linecap="round" stroke-linejoin="round"/>
<path d="M1868.48 686.643H233.348" stroke="white" stroke-opacity="0.06" stroke-width="2.42328" stroke-linecap="round" stroke-linejoin="round"/>
<path d="M1868.48 919.852H233.348" stroke="white" stroke-opacity="0.06" stroke-width="2.42328" stroke-linecap="round" stroke-linejoin="round"/>
<path d="M1868.48 999.729H233.348" stroke="white" stroke-opacity="0.06" stroke-width="2.42328" stroke-linecap="round" stroke-linejoin="round"/>
<path d="M1868.48 1144.49H233.348" stroke="white" stroke-opacity="0.06" stroke-width="2.42328" stroke-linecap="round" stroke-linejoin="round"/>
<path d="M1868.48 1121.63H233.348" stroke="white" stroke-opacity="0.06" stroke-width="2.42328" stroke-linecap="round" stroke-linejoin="round"/>
<path d="M1868.48 1107.97H233.348" stroke="white" stroke-opacity="0.06" stroke-width="2.42328" stroke-linecap="round" stroke-linejoin="round"/>
<path d="M1868.48 1133.72H233.348" stroke="white" stroke-opacity="0.06" stroke-width="2.42328" stroke-linecap="round" stroke-linejoin="round"/>
<path d="M1868.48 1162.84H233.348" stroke="white" stroke-opacity="0.06" stroke-width="2.42328" stroke-linecap="round" stroke-linejoin="round"/>
<path d="M1868.48 1154.14H233.348" stroke="white" stroke-opacity="0.06" stroke-width="2.42328" stroke-linecap="round" stroke-linejoin="round"/>
<path d="M1868.48 1170.71H233.348" stroke="white" stroke-opacity="0.06" stroke-width="2.42328" stroke-linecap="round" stroke-linejoin="round"/>
<path d="M1868.48 1177.89H233.348" stroke="white" stroke-opacity="0.06" stroke-width="2.42328" stroke-linecap="round" stroke-linejoin="round"/>
<path d="M1868.48 536.325H233.348" stroke="white" stroke-opacity="0.06" stroke-width="2.42328" stroke-linecap="round" stroke-linejoin="round"/>
<path d="M1868.48 1074.44H233.348" stroke="white" stroke-opacity="0.06" stroke-width="2.42328" stroke-linecap="round" stroke-linejoin="round"/>
<path d="M1868.48 1029.05H233.348" stroke="white" stroke-opacity="0.06" stroke-width="2.42328" stroke-linecap="round" stroke-linejoin="round"/>
<path d="M1868.48 1092.38H233.348" stroke="white" stroke-opacity="0.06" stroke-width="2.42328" stroke-linecap="round" stroke-linejoin="round"/>
<path d="M233.348 1477.07H1868.48" stroke="white" stroke-opacity="0.06" stroke-width="2.42328" stroke-linecap="round" stroke-linejoin="round"/>
<path d="M233.348 1403.91H1868.48" stroke="white" stroke-opacity="0.06" stroke-width="2.42328" stroke-linecap="round" stroke-linejoin="round"/>
<path d="M233.348 1330.76H1868.48" stroke="white" stroke-opacity="0.06" stroke-width="2.42328" stroke-linecap="round" stroke-linejoin="round"/>
<path d="M233.348 1257.6H1868.48" stroke="white" stroke-opacity="0.06" stroke-width="2.42328" stroke-linecap="round" stroke-linejoin="round"/>
<path d="M233.348 1184.45H1868.48" stroke="white" stroke-opacity="0.06" stroke-width="2.42328" stroke-linecap="round" stroke-linejoin="round"/>
<path d="M1868.13 1477.07H233.348" stroke="white" stroke-opacity="0.06" stroke-width="2.42328" stroke-linecap="round" stroke-linejoin="round"/>
<path d="M1868.48 1483.64H233.348" stroke="white" stroke-opacity="0.06" stroke-width="2.42328" stroke-linecap="round" stroke-linejoin="round"/>
<path d="M1868.48 1490.83H233.348" stroke="white" stroke-opacity="0.06" stroke-width="2.42328" stroke-linecap="round" stroke-linejoin="round"/>
<path d="M1868.48 1498.74H233.348" stroke="white" stroke-opacity="0.06" stroke-width="2.42328" stroke-linecap="round" stroke-linejoin="round"/>
<path d="M1868.48 1507.46H233.348" stroke="white" stroke-opacity="0.06" stroke-width="2.42328" stroke-linecap="round" stroke-linejoin="round"/>
<path d="M1868.48 1517.13H233.348" stroke="white" stroke-opacity="0.06" stroke-width="2.42328" stroke-linecap="round" stroke-linejoin="round"/>
<path d="M1868.48 1527.93H233.348" stroke="white" stroke-opacity="0.06" stroke-width="2.42328" stroke-linecap="round" stroke-linejoin="round"/>
<path d="M1868.48 1540.05H233.348" stroke="white" stroke-opacity="0.06" stroke-width="2.42328" stroke-linecap="round" stroke-linejoin="round"/>
<path d="M1868.48 1553.76H233.348" stroke="white" stroke-opacity="0.06" stroke-width="2.42328" stroke-linecap="round" stroke-linejoin="round"/>
<path d="M1868.48 1569.38H233.348" stroke="white" stroke-opacity="0.06" stroke-width="2.42328" stroke-linecap="round" stroke-linejoin="round"/>
<path d="M1868.48 1587.36H233.348" stroke="white" stroke-opacity="0.06" stroke-width="2.42328" stroke-linecap="round" stroke-linejoin="round"/>
<path d="M1868.48 1608.27H233.348" stroke="white" stroke-opacity="0.06" stroke-width="2.42328" stroke-linecap="round" stroke-linejoin="round"/>
<path d="M1868.48 1632.88H233.348" stroke="white" stroke-opacity="0.06" stroke-width="2.42328" stroke-linecap="round" stroke-linejoin="round"/>
<path d="M1868.48 1662.28H233.348" stroke="white" stroke-opacity="0.06" stroke-width="2.42328" stroke-linecap="round" stroke-linejoin="round"/>
<path d="M1868.48 1698.01H233" stroke="white" stroke-opacity="0.06" stroke-width="2.42328" stroke-linecap="round" stroke-linejoin="round"/>
<path d="M1868.48 1742.37H233.348" stroke="white" stroke-opacity="0.06" stroke-width="2.42328" stroke-linecap="round" stroke-linejoin="round"/>
<path d="M1868.48 1798.92H233.348" stroke="white" stroke-opacity="0.06" stroke-width="2.42328" stroke-linecap="round" stroke-linejoin="round"/>
<path d="M1868.48 1873.47H233.348" stroke="white" stroke-opacity="0.06" stroke-width="2.42328" stroke-linecap="round" stroke-linejoin="round"/>
<path d="M1868.48 1976.23H233.348" stroke="white" stroke-opacity="0.06" stroke-width="2.42328" stroke-linecap="round" stroke-linejoin="round"/>
<path d="M1868.48 2126.98H233.348" stroke="white" stroke-opacity="0.06" stroke-width="2.42328" stroke-linecap="round" stroke-linejoin="round"/>
<g opacity="0.7">
<g filter="url(#filter0_f_127_227)">
<ellipse cx="1051" cy="1106" rx="937" ry="992" fill="url(#paint5_radial_127_227)" fill-opacity="0.68"/>
</g>
<g filter="url(#filter1_f_127_227)">
<circle cx="1051.29" cy="1332.6" r="326.807" fill="url(#paint6_linear_127_227)" fill-opacity="0.42"/>
</g>
</g>
<defs>
<filter id="filter0_f_127_227" x="0.500565" y="0.500565" width="2101" height="2211" filterUnits="userSpaceOnUse" color-interpolation-filters="sRGB">
<feFlood flood-opacity="0" result="BackgroundImageFix"/>
<feBlend mode="normal" in="SourceGraphic" in2="BackgroundImageFix" result="shape"/>
<feGaussianBlur stdDeviation="56.7497" result="effect1_foregroundBlur_127_227"/>
</filter>
<filter id="filter1_f_127_227" x="582.104" y="863.411" width="938.371" height="938.371" filterUnits="userSpaceOnUse" color-interpolation-filters="sRGB">
<feFlood flood-opacity="0" result="BackgroundImageFix"/>
<feBlend mode="normal" in="SourceGraphic" in2="BackgroundImageFix" result="shape"/>
<feGaussianBlur stdDeviation="71.1894" result="effect1_foregroundBlur_127_227"/>
</filter>
<linearGradient id="paint0_linear_127_227" x1="621.5" y1="1760.5" x2="524.5" y2="1857.5" gradientUnits="userSpaceOnUse">
<stop stop-color="white" stop-opacity="0.7"/>
<stop offset="0.279513" stop-color="white" stop-opacity="0.262779"/>
<stop offset="1" stop-color="white" stop-opacity="0"/>
</linearGradient>
<linearGradient id="paint1_linear_127_227" x1="880.5" y1="1672.5" x2="783.5" y2="1769.5" gradientUnits="userSpaceOnUse">
<stop stop-color="white" stop-opacity="0.7"/>
<stop offset="0.279513" stop-color="white" stop-opacity="0.262779"/>
<stop offset="1" stop-color="white" stop-opacity="0"/>
</linearGradient>
<linearGradient id="paint2_linear_127_227" x1="621.5" y1="1617.5" x2="570" y2="1652" gradientUnits="userSpaceOnUse">
<stop stop-color="white" stop-opacity="0.5"/>
<stop offset="0.18016" stop-color="white" stop-opacity="0.409244"/>
<stop offset="1" stop-color="white" stop-opacity="0"/>
</linearGradient>
<linearGradient id="paint3_linear_127_227" x1="1602.5" y1="1699.5" x2="1654" y2="1734" gradientUnits="userSpaceOnUse">
<stop stop-color="white" stop-opacity="0.5"/>
<stop offset="0.18016" stop-color="white" stop-opacity="0.409244"/>
<stop offset="1" stop-color="white" stop-opacity="0"/>
</linearGradient>
<linearGradient id="paint4_linear_127_227" x1="1380" y1="1660.5" x2="1477" y2="1757.5" gradientUnits="userSpaceOnUse">
<stop stop-color="white" stop-opacity="0.7"/>
<stop offset="0.327724" stop-color="white" stop-opacity="0.262779"/>
<stop offset="1" stop-color="white" stop-opacity="0"/>
</linearGradient>
<radialGradient id="paint5_radial_127_227" cx="0" cy="0" r="1" gradientUnits="userSpaceOnUse" gradientTransform="translate(1051 1106) rotate(90) scale(992 937)">
<stop stop-color="#D526B9"/>
<stop offset="1" stop-color="#D526B9" stop-opacity="0"/>
</radialGradient>
<linearGradient id="paint6_linear_127_227" x1="1051.29" y1="1005.79" x2="1051.29" y2="1659.4" gradientUnits="userSpaceOnUse">
<stop stop-color="#0AF1FF" stop-opacity="0"/>
<stop offset="1" stop-color="#0AF1FF"/>
</linearGradient>
</defs>
</svg>
