<?xml version="1.0" encoding="UTF-8"?>
<svg width="320px" height="48px" viewBox="0 0 320 48" version="1.1" xmlns="http://www.w3.org/2000/svg" xmlns:xlink="http://www.w3.org/1999/xlink">
    <title>D</title>
    <defs>
        <linearGradient x1="59.5564444%" y1="41.4563872%" x2="40.6437778%" y2="57.3664869%" id="linearGradient-1">
            <stop stop-color="#FFFFFF" offset="0%"></stop>
            <stop stop-color="#8F9196" offset="100%"></stop>
        </linearGradient>
        <linearGradient x1="34.8102679%" y1="5.37012117%" x2="86.1017857%" y2="77.3414541%" id="linearGradient-2">
            <stop stop-color="#FFFFFF" offset="0%"></stop>
            <stop stop-color="#8F9196" offset="100%"></stop>
        </linearGradient>
        <linearGradient x1="50.0279446%" y1="1.43834746%" x2="50.0279446%" y2="212.051483%" id="linearGradient-3">
            <stop stop-color="#FFFFFF" offset="0%"></stop>
            <stop stop-color="#8F9196" offset="100%"></stop>
        </linearGradient>
        <linearGradient x1="50.1147727%" y1="1.64672304%" x2="50.1147727%" y2="211.814588%" id="linearGradient-4">
            <stop stop-color="#FFFFFF" offset="0%"></stop>
            <stop stop-color="#8F9196" offset="100%"></stop>
        </linearGradient>
        <linearGradient x1="49.71983%" y1="1.43834746%" x2="49.71983%" y2="212.051483%" id="linearGradient-5">
            <stop stop-color="#FFFFFF" offset="0%"></stop>
            <stop stop-color="#8F9196" offset="100%"></stop>
        </linearGradient>
        <linearGradient x1="49.9290526%" y1="1.64672304%" x2="49.9290526%" y2="211.814588%" id="linearGradient-6">
            <stop stop-color="#FFFFFF" offset="0%"></stop>
            <stop stop-color="#8F9196" offset="100%"></stop>
        </linearGradient>
        <linearGradient x1="50.0093946%" y1="2.44587738%" x2="50.0093946%" y2="209.026004%" id="linearGradient-7">
            <stop stop-color="#FFFFFF" offset="0%"></stop>
            <stop stop-color="#8F9196" offset="100%"></stop>
        </linearGradient>
        <linearGradient x1="49.8818966%" y1="1.64672304%" x2="49.8818966%" y2="211.814588%" id="linearGradient-8">
            <stop stop-color="#FFFFFF" offset="0%"></stop>
            <stop stop-color="#8F9196" offset="100%"></stop>
        </linearGradient>
    </defs>
    <g id="Page-1" stroke="none" stroke-width="1" fill="none" fill-rule="evenodd">
        <g id="Artboard" transform="translate(-143.000000, -261.000000)" fill-rule="nonzero">
            <g id="D" transform="translate(143.900000, 261.400000)">
                <g id="Path" transform="translate(194.500000, 13.600000)">
                    <polyline fill="url(#linearGradient-1)" points="0 9.5 22.4 20.8 45 10.4 22.4 0"></polyline>
                    <polyline fill="url(#linearGradient-2)" points="0 9.5 22.4 20.8 22.4 0 0 9.5"></polyline>
                </g>
                <g id="Group">
                    <g>
                        <g>
                            <path d="M0,47.3 L17.2,0.1 L26.1,0.1 L43.3,47.3 L31.9,47.3 L29.3,40.3 L14.4,40.3 L12.1,47.3 L0,47.3 Z M17.6,30.5 L25.7,30.5 L21.7,17.9 L17.6,30.5 Z" id="Shape" fill="url(#linearGradient-3)"></path>
                            <polygon id="Path" fill="url(#linearGradient-4)" points="69.2 47.3 69.2 1.42108547e-14 80.6 1.42108547e-14 91.2 20.8 101.8 1.42108547e-14 113.2 1.42108547e-14 113.2 47.2 101.6 47.2 101.6 24.6 94.9 36.3 87.5 36.3 80.8 24.6 80.8 47.2 69.2 47.2"></polygon>
                            <path d="M152.3,23.1 L157.5,13.8 L145.9,0.1 L122.9,0.1 L122.9,47.3 L146.9,47.3 L158.2,33.4 L152.3,23.1 Z M142.2,36.6 L132.1,36.6 L132.1,28.8 L142.2,28.8 L145.8,32.7 L142.2,36.6 Z M142.2,18.2 L132.1,18.2 L132.1,10.4 L142.2,10.4 L145.8,14.3 L142.2,18.2 Z" id="Shape" fill="url(#linearGradient-5)"></path>
                            <polygon id="Path" fill="url(#linearGradient-6)" points="288.4 42.2 288.4 10.4 282.4 10.4 276.8 10.4 271 1.42108547e-14 318.5 1.42108547e-14 313.1 10.3 292.7 10.3 300 13.2 300 42.2 294.2 47.3"></polygon>
                        </g>
                        <path d="M253.1,1.42108547e-14 L180.9,1.42108547e-14 L169.1,13.4 L169.1,33.9 L180.9,47.3 L253.1,47.3 L264.9,33.9 L264.9,13.4 L253.1,1.42108547e-14 Z M253.7,31.7 C253.7,31.7 249.8,37.1 247.8,37.1 L247.8,37.1 L186.2,37.1 L186.2,37.1 C184.2,37.1 180.3,31.7 180.3,31.7 C180.3,31.7 179.9,27.6 179.9,23.7 C179.9,19.8 180.3,15.7 180.3,15.7 L186.2,10.3 L247.8,10.3 L253.7,15.7 C253.7,15.7 254.1,19.8 254.1,23.7 C254.1,27.6 253.7,31.7 253.7,31.7 Z" id="Shape" fill="url(#linearGradient-7)"></path>
                    </g>
                    <polygon id="Path" fill="url(#linearGradient-8)" points="48.1 1.42108547e-14 48.1 47.3 59.7 47.3 59.7 1.42108547e-14 53.9 5.6"></polygon>
                </g>
            </g>
        </g>
    </g>
</svg>